<svg width="207" height="111" viewBox="0 0 207 111" fill="none" xmlns="http://www.w3.org/2000/svg">
<circle cx="50" cy="50" r="49" fill="#7A3D1C" stroke="#FDD486" stroke-width="2"/>
<path d="M100.918 24.5938C100.872 24.9355 100.724 25.209 100.474 25.4141C100.223 25.6191 99.9382 25.7217 99.6191 25.7217C99.5736 25.7217 99.4938 25.7217 99.3799 25.7217C99.266 25.6989 99.0039 25.6875 98.5938 25.6875C98.1608 25.6875 97.6025 25.7331 96.9189 25.8242C96.2581 25.9154 95.5176 26.109 94.6973 26.4053C93.8997 26.6787 93.0566 27.0889 92.168 27.6357C91.3021 28.1826 90.4476 28.9232 89.6045 29.8574C88.7614 30.7689 87.9639 31.9082 87.2119 33.2754C86.46 34.6198 85.8219 36.249 85.2979 38.1631C85.0244 39.1201 84.7054 40.4987 84.3408 42.2988C83.999 44.0762 83.623 46.0814 83.2129 48.3145C82.8255 50.5475 82.4268 52.9287 82.0166 55.458C81.6292 57.9873 81.2533 60.471 80.8887 62.9092C80.5469 65.3473 80.2279 67.6715 79.9316 69.8818C79.6354 72.0693 79.4076 73.9492 79.248 75.5215C79.2025 75.8177 79.0658 76.0798 78.8379 76.3076C78.6328 76.5583 78.3708 76.6836 78.0518 76.6836C77.7327 76.6836 77.4479 76.6038 77.1973 76.4443C76.9694 76.2848 76.8099 76.0456 76.7188 75.7266C76.4225 74.6328 75.9554 73.1175 75.3174 71.1807C74.6794 69.2438 73.9388 67.0677 73.0957 64.6523C72.2754 62.2142 71.3753 59.6279 70.3955 56.8936C69.4157 54.1592 68.4359 51.459 67.4561 48.793C66.499 46.1042 65.5648 43.5407 64.6533 41.1025C63.7646 38.6416 62.9785 36.4769 62.2949 34.6084C62.181 35.8844 61.9987 37.3086 61.748 38.8809C61.5202 40.4303 61.2012 42.1051 60.791 43.9053C60.4036 45.6826 59.9137 47.5739 59.3213 49.5791C58.7288 51.5615 58.0225 53.6237 57.2021 55.7656C55.9261 59.0469 54.4222 61.8496 52.6904 64.1738C50.9814 66.498 49.1813 68.4349 47.29 69.9844C45.3988 71.5339 43.4733 72.7643 41.5137 73.6758C39.5768 74.5645 37.7539 75.2367 36.0449 75.6924C34.3359 76.1481 32.7979 76.4329 31.4307 76.5469C30.0635 76.6836 29.0153 76.752 28.2861 76.752C25.7796 76.752 23.4668 76.4215 21.3477 75.7607C19.2513 75.0999 17.4284 74.1657 15.8789 72.958C14.3522 71.7275 13.1559 70.2692 12.29 68.583C11.4469 66.874 11.0254 64.9941 11.0254 62.9434C11.0254 61.0977 11.4355 59.3773 12.2559 57.7822C13.099 56.1644 14.2155 54.763 15.6055 53.5781C17.0182 52.3932 18.6247 51.459 20.4248 50.7754C22.2477 50.0918 24.139 49.75 26.0986 49.75C27.7165 49.75 29.1634 49.9095 30.4395 50.2285C31.7383 50.5475 32.8776 50.9577 33.8574 51.459C34.86 51.9375 35.7145 52.4616 36.4209 53.0312C37.1501 53.6009 37.7425 54.1478 38.1982 54.6719C38.6768 55.1732 39.0299 55.6061 39.2578 55.9707C39.5085 56.3353 39.6566 56.5518 39.7021 56.6201C39.7933 56.8024 39.8389 57.0075 39.8389 57.2354C39.8389 57.5544 39.7135 57.8506 39.4629 58.124C39.235 58.3975 38.9274 58.5342 38.54 58.5342C38.0387 58.5342 37.6628 58.3063 37.4121 57.8506C37.3893 57.7822 37.1615 57.4632 36.7285 56.8936C36.3184 56.3011 35.6689 55.6631 34.7803 54.9795C33.9144 54.2959 32.7865 53.6807 31.3965 53.1338C30.0065 52.5641 28.3203 52.2793 26.3379 52.2793C24.7201 52.2793 23.1364 52.5527 21.5869 53.0996C20.0602 53.6465 18.7044 54.3984 17.5195 55.3555C16.3346 56.3125 15.3776 57.4518 14.6484 58.7734C13.9421 60.0723 13.5889 61.485 13.5889 63.0117C13.5889 64.6751 13.9762 66.2018 14.751 67.5918C15.5257 68.959 16.5739 70.1325 17.8955 71.1123C19.2399 72.0921 20.7894 72.8555 22.5439 73.4023C24.3213 73.9264 26.2126 74.1885 28.2178 74.1885C28.9925 74.1885 30.0179 74.1315 31.2939 74.0176C32.57 73.9036 33.9941 73.6416 35.5664 73.2314C37.1615 72.8213 38.8363 72.2061 40.5908 71.3857C42.3454 70.5426 44.0771 69.4033 45.7861 67.9678C47.4951 66.5322 49.1243 64.7435 50.6738 62.6016C52.2461 60.4596 53.6247 57.862 54.8096 54.8086C56.04 51.6641 56.9971 48.679 57.6807 45.8535C58.387 43.0052 58.9111 40.4417 59.2529 38.1631C59.5947 35.8844 59.7998 33.9476 59.8682 32.3525C59.9593 30.7347 60.0049 29.584 60.0049 28.9004V28.2168C60.0049 27.8522 60.1188 27.5446 60.3467 27.2939C60.5973 27.0205 60.9163 26.8838 61.3037 26.8838C61.8734 26.8838 62.2721 27.1686 62.5 27.7383C62.5684 27.8978 62.762 28.4333 63.0811 29.3447C63.4229 30.2562 63.8558 31.4411 64.3799 32.8994C64.9268 34.335 65.542 35.9984 66.2256 37.8896C66.932 39.7809 67.6725 41.7975 68.4473 43.9395C69.222 46.0586 70.0195 48.2575 70.8398 50.5361C71.6602 52.8148 72.4577 55.0592 73.2324 57.2695C74.0299 59.4798 74.7819 61.6104 75.4883 63.6611C76.1947 65.7119 76.8327 67.5804 77.4023 69.2666C77.653 67.4437 77.9264 65.5182 78.2227 63.4902C78.5189 61.4395 78.8265 59.3773 79.1455 57.3037C79.4873 55.2074 79.8177 53.1566 80.1367 51.1514C80.4785 49.1462 80.8089 47.2663 81.1279 45.5117C81.4697 43.7572 81.7773 42.1849 82.0508 40.7949C82.3242 39.4049 82.5749 38.2884 82.8027 37.4453C83.304 35.4401 84.0218 33.5716 84.9561 31.8398C85.8903 30.0853 87.0182 28.5586 88.3398 27.2598C89.6842 25.9609 91.2109 24.9469 92.9199 24.2178C94.6517 23.4658 96.5658 23.0898 98.6621 23.0898C99.4596 23.0898 100.029 23.181 100.371 23.3633C100.736 23.5456 100.918 23.8988 100.918 24.4229V24.5938ZM94.3555 72.2402C94.834 72.901 95.4492 73.4365 96.2012 73.8467C96.9531 74.234 97.876 74.4277 98.9697 74.4277C100.086 74.4277 101.1 74.1657 102.012 73.6416C102.923 73.0947 103.755 72.3883 104.507 71.5225C105.259 70.6566 105.931 69.6882 106.523 68.6172C107.116 67.5462 107.651 66.4753 108.13 65.4043C108.244 65.1536 108.403 64.9714 108.608 64.8574C108.813 64.7207 109.041 64.6523 109.292 64.6523C109.679 64.6523 109.987 64.7891 110.215 65.0625C110.465 65.3359 110.591 65.6322 110.591 65.9512C110.591 66.0651 110.579 66.1676 110.557 66.2588C110.534 66.3271 110.5 66.4069 110.454 66.498C108.882 69.9616 107.161 72.5706 105.293 74.3252C103.447 76.0798 101.351 76.9798 99.0039 77.0254C97.5 77.0254 96.2012 76.7292 95.1074 76.1367C94.0137 75.5671 93.1136 74.8265 92.4072 73.915C91.7008 72.9808 91.1768 71.9326 90.835 70.7705C90.4932 69.6084 90.3223 68.4463 90.3223 67.2842C90.3223 66.1221 90.459 65.0511 90.7324 64.0713C91.0286 63.0915 91.4388 62.237 91.9629 61.5078C92.5098 60.7786 93.1478 60.209 93.877 59.7988C94.6289 59.3887 95.4492 59.1836 96.3379 59.1836C96.862 59.1836 97.3747 59.2975 97.876 59.5254C98.4001 59.7305 98.8672 60.0381 99.2773 60.4482C99.6875 60.8356 100.018 61.3141 100.269 61.8838C100.519 62.4535 100.645 63.1029 100.645 63.832C100.645 64.7663 100.485 65.6436 100.166 66.4639C99.847 67.2842 99.4027 68.0475 98.833 68.7539C98.2861 69.4603 97.6253 70.1097 96.8506 70.7021C96.0758 71.2946 95.2441 71.8073 94.3555 72.2402ZM93.3301 70.0186C94.0365 69.7223 94.6745 69.3464 95.2441 68.8906C95.8366 68.4349 96.3379 67.9336 96.748 67.3867C97.1582 66.8398 97.4772 66.2702 97.7051 65.6777C97.9329 65.0625 98.0469 64.4473 98.0469 63.832C98.0469 63.1484 97.876 62.6357 97.5342 62.2939C97.1924 61.9294 96.7936 61.7471 96.3379 61.7471C95.7227 61.7471 95.1986 61.918 94.7656 62.2598C94.3327 62.6016 93.9795 63.0459 93.7061 63.5928C93.4326 64.1396 93.2275 64.7549 93.0908 65.4385C92.9769 66.0993 92.9199 66.7601 92.9199 67.4209C92.9199 67.8311 92.9541 68.264 93.0225 68.7197C93.1136 69.1755 93.2161 69.6084 93.3301 70.0186ZM134.585 66.4639C134.494 66.6462 134.3 67.0335 134.004 67.626C133.73 68.1956 133.366 68.8564 132.91 69.6084C132.477 70.3604 131.965 71.1465 131.372 71.9668C130.78 72.7871 130.119 73.5391 129.39 74.2227C128.66 74.9062 127.874 75.4759 127.031 75.9316C126.188 76.3646 125.299 76.5811 124.365 76.5811C123.044 76.5811 121.927 76.1595 121.016 75.3164C120.127 74.4733 119.478 73.4137 119.067 72.1377C118.293 73.4365 117.37 74.4733 116.299 75.248C115.228 76 114.157 76.376 113.086 76.376C112.243 76.376 111.479 76.2279 110.796 75.9316C110.112 75.6126 109.531 75.1797 109.053 74.6328C108.574 74.0632 108.198 73.4023 107.925 72.6504C107.674 71.8984 107.549 71.0781 107.549 70.1895C107.549 68.4121 107.845 66.8512 108.438 65.5068C109.053 64.1396 109.827 63.0003 110.762 62.0889C111.696 61.1774 112.721 60.4938 113.838 60.0381C114.977 59.5824 116.071 59.3545 117.119 59.3545C117.826 59.3545 118.475 59.457 119.067 59.6621C119.66 59.8444 120.161 60.0495 120.571 60.2773C121.004 60.5052 121.335 60.7217 121.562 60.9268C121.79 61.109 121.916 61.2116 121.938 61.2344C122.189 61.5306 122.314 61.8382 122.314 62.1572C122.314 62.499 122.189 62.8066 121.938 63.0801C121.688 63.3307 121.392 63.4561 121.05 63.4561C120.685 63.4561 120.378 63.3307 120.127 63.0801C120.081 63.0345 119.979 62.9548 119.819 62.8408C119.66 62.7041 119.443 62.5674 119.17 62.4307C118.896 62.2939 118.566 62.18 118.179 62.0889C117.814 61.9749 117.393 61.918 116.914 61.918C116.208 61.918 115.456 62.0775 114.658 62.3965C113.861 62.7155 113.132 63.2168 112.471 63.9004C111.81 64.5612 111.252 65.4043 110.796 66.4297C110.363 67.4323 110.146 68.6286 110.146 70.0186C110.146 70.4515 110.192 70.8958 110.283 71.3516C110.374 71.7845 110.534 72.1833 110.762 72.5479C110.99 72.9124 111.297 73.2087 111.685 73.4365C112.072 73.6644 112.55 73.7783 113.12 73.7783C113.53 73.7783 113.997 73.6416 114.521 73.3682C115.068 73.0947 115.581 72.6732 116.06 72.1035C116.561 71.5339 117.005 70.8161 117.393 69.9502C117.803 69.0843 118.088 68.0589 118.247 66.874C118.293 66.555 118.441 66.293 118.691 66.0879C118.942 65.86 119.238 65.7461 119.58 65.7461C119.899 65.7461 120.173 65.8714 120.4 66.1221C120.651 66.3727 120.788 66.6576 120.811 66.9766C120.833 67.4095 120.879 68.0247 120.947 68.8223C121.016 69.597 121.164 70.3717 121.392 71.1465C121.642 71.9212 122.007 72.5934 122.485 73.1631C122.964 73.7327 123.625 74.0176 124.468 74.0176C125.015 74.0176 125.55 73.8695 126.074 73.5732C126.621 73.277 127.145 72.8896 127.646 72.4111C128.171 71.9098 128.66 71.3516 129.116 70.7363C129.595 70.0983 130.028 69.4603 130.415 68.8223C130.802 68.1842 131.144 67.569 131.44 66.9766C131.737 66.3841 131.987 65.8714 132.192 65.4385C132.306 65.1878 132.466 64.9941 132.671 64.8574C132.899 64.7207 133.138 64.6523 133.389 64.6523C133.776 64.6523 134.084 64.8005 134.312 65.0967C134.562 65.3701 134.688 65.6663 134.688 65.9854C134.688 66.1449 134.653 66.3044 134.585 66.4639ZM149.761 66.4639C149.761 68.5602 149.385 70.349 148.633 71.8301C147.881 73.3112 146.958 74.4391 145.864 75.2139H146.001C147.345 75.2139 148.564 74.9176 149.658 74.3252C150.775 73.71 151.777 72.9352 152.666 72.001C153.555 71.0439 154.352 69.9844 155.059 68.8223C155.765 67.6602 156.392 66.5322 156.938 65.4385C157.052 65.1878 157.212 64.9941 157.417 64.8574C157.645 64.7207 157.884 64.6523 158.135 64.6523C158.522 64.6523 158.83 64.7891 159.058 65.0625C159.285 65.3359 159.399 65.6322 159.399 65.9512C159.399 66.1335 159.365 66.3044 159.297 66.4639C158.704 67.7855 157.998 69.1185 157.178 70.4629C156.357 71.7845 155.4 72.9808 154.307 74.0518C153.213 75.1227 151.982 75.9886 150.615 76.6494C149.248 77.333 147.733 77.6748 146.069 77.6748C144.862 77.6748 143.688 77.4811 142.549 77.0938C141.41 76.7292 140.407 76.1481 139.541 75.3506C139.222 75.0999 138.949 74.8379 138.721 74.5645C138.493 74.2682 138.311 73.9948 138.174 73.7441C138.128 73.6986 138.105 73.653 138.105 73.6074C137.969 73.4023 137.9 73.1859 137.9 72.958C137.9 72.6618 138.003 72.3883 138.208 72.1377C138.231 72.0921 138.254 72.0693 138.276 72.0693C138.299 72.0465 138.322 72.0238 138.345 72.001C138.573 71.7959 138.823 71.682 139.097 71.6592H139.199C139.313 71.6592 139.393 71.6706 139.438 71.6934C139.461 71.6934 139.473 71.7048 139.473 71.7275C139.495 71.7275 139.518 71.7275 139.541 71.7275C139.609 71.7275 139.689 71.7503 139.78 71.7959C139.803 71.8187 139.826 71.8301 139.849 71.8301C140.054 71.9668 140.225 72.1377 140.361 72.3428C140.521 72.6162 140.703 72.8669 140.908 73.0947C141.09 73.277 141.307 73.4479 141.558 73.6074C141.808 73.7441 142.093 73.8125 142.412 73.8125C142.982 73.8125 143.551 73.6416 144.121 73.2998C144.691 72.958 145.203 72.4681 145.659 71.8301C146.115 71.1921 146.479 70.4173 146.753 69.5059C147.049 68.5944 147.197 67.5804 147.197 66.4639C147.197 65.6436 147.106 64.9486 146.924 64.3789C146.764 63.7865 146.548 63.3079 146.274 62.9434C146.024 62.5788 145.75 62.3167 145.454 62.1572C145.158 61.9749 144.873 61.8838 144.6 61.8838C143.984 61.8838 143.358 62.2028 142.72 62.8408C142.104 63.4788 141.489 64.2878 140.874 65.2676C140.259 66.2474 139.644 67.3298 139.028 68.5146C138.436 69.6995 137.832 70.8503 137.217 71.9668C137.171 75.6582 137.103 79.1787 137.012 82.5283C136.943 85.8779 136.807 88.9883 136.602 91.8594C136.419 94.7305 136.157 97.3281 135.815 99.6523C135.474 101.977 135.007 103.959 134.414 105.6C133.822 107.263 133.092 108.539 132.227 109.428C131.361 110.316 130.301 110.761 129.048 110.761C128.66 110.761 128.216 110.681 127.715 110.521C127.214 110.362 126.746 110.032 126.313 109.53C125.881 109.052 125.516 108.357 125.22 107.445C124.924 106.534 124.775 105.315 124.775 103.788C124.775 101.851 125.015 99.6068 125.493 97.0547C125.972 94.5026 126.655 91.791 127.544 88.9199C128.41 86.0716 129.447 83.1436 130.654 80.1357C131.862 77.1279 133.195 74.1999 134.653 71.3516C134.653 70.554 134.653 69.7679 134.653 68.9932C134.676 68.2184 134.688 67.4665 134.688 66.7373C134.391 67.0791 134.038 67.25 133.628 67.25C133.241 67.25 132.933 67.1133 132.705 66.8398C132.477 66.5664 132.363 66.2702 132.363 65.9512C132.363 65.7917 132.397 65.6208 132.466 65.4385C133.013 64.1852 133.434 63.0003 133.73 61.8838C134.027 60.7445 134.243 59.7533 134.38 58.9102C134.539 58.0443 134.631 57.3607 134.653 56.8594C134.676 56.3581 134.688 56.096 134.688 56.0732C134.688 55.7314 134.813 55.4352 135.063 55.1846C135.314 54.9339 135.622 54.8086 135.986 54.8086C136.328 54.8086 136.624 54.9339 136.875 55.1846C137.126 55.4124 137.251 55.7087 137.251 56.0732V66.5664C137.775 65.6777 138.299 64.8005 138.823 63.9346C139.347 63.0687 139.894 62.2939 140.464 61.6104C141.056 60.9268 141.683 60.3799 142.344 59.9697C143.027 59.5368 143.779 59.3203 144.6 59.3203C145.374 59.3203 146.081 59.5026 146.719 59.8672C147.357 60.2318 147.904 60.7331 148.359 61.3711C148.815 62.0091 149.157 62.7725 149.385 63.6611C149.635 64.527 149.761 65.4613 149.761 66.4639ZM134.585 77.4355C133.468 79.9421 132.454 82.46 131.543 84.9893C130.654 87.5186 129.902 89.9567 129.287 92.3037C128.649 94.6507 128.159 96.8496 127.817 98.9004C127.476 100.951 127.305 102.751 127.305 104.301C127.305 104.688 127.327 105.11 127.373 105.565C127.419 106.021 127.51 106.443 127.646 106.83C127.783 107.217 127.977 107.536 128.228 107.787C128.478 108.061 128.809 108.197 129.219 108.197C129.971 108.197 130.62 107.719 131.167 106.762C131.714 105.827 132.17 104.551 132.534 102.934C132.922 101.339 133.241 99.4928 133.491 97.3965C133.742 95.3229 133.936 93.1468 134.072 90.8682C134.232 88.5895 134.346 86.2881 134.414 83.9639C134.482 81.6624 134.539 79.4863 134.585 77.4355ZM172.729 72.2402C172.16 72.2402 171.659 72.1947 171.226 72.1035C170.884 72.7871 170.474 73.4251 169.995 74.0176C169.517 74.5872 168.958 75.0885 168.32 75.5215C167.705 75.9544 167.01 76.2962 166.235 76.5469C165.461 76.7975 164.618 76.9229 163.706 76.9229C162.635 76.9229 161.655 76.7292 160.767 76.3418C159.878 75.9772 159.103 75.4645 158.442 74.8037C157.782 74.1201 157.269 73.3112 156.904 72.377C156.54 71.4199 156.357 70.3717 156.357 69.2324C156.357 67.7741 156.619 66.5094 157.144 65.4385C157.668 64.3447 158.271 63.4447 158.955 62.7383C159.639 62.0091 160.322 61.4736 161.006 61.1318C161.689 60.7673 162.202 60.585 162.544 60.585C162.931 60.585 163.216 60.6875 163.398 60.8926C163.604 61.0977 163.706 61.3711 163.706 61.7129C163.706 62.1003 163.581 62.3965 163.33 62.6016C163.102 62.7839 162.806 62.9661 162.441 63.1484C162.077 63.3307 161.689 63.5928 161.279 63.9346C160.869 64.2536 160.482 64.6637 160.117 65.165C159.775 65.6663 159.491 66.2588 159.263 66.9424C159.035 67.626 158.921 68.3893 158.921 69.2324C158.921 69.9844 159.035 70.6908 159.263 71.3516C159.491 71.9896 159.821 72.5479 160.254 73.0264C160.687 73.4821 161.2 73.8467 161.792 74.1201C162.384 74.3708 163.045 74.4961 163.774 74.4961C165.073 74.4961 166.144 74.1999 166.987 73.6074C167.853 72.9922 168.514 72.2174 168.97 71.2832C167.625 70.5768 166.52 69.5742 165.654 68.2754C164.788 66.9766 164.355 65.5182 164.355 63.9004C164.355 62.6016 164.663 61.542 165.278 60.7217C165.916 59.9014 166.748 59.4912 167.773 59.4912C168.389 59.4912 168.97 59.6393 169.517 59.9355C170.063 60.2318 170.542 60.6989 170.952 61.3369C171.385 61.9749 171.727 62.7952 171.978 63.7979C172.228 64.8005 172.354 65.9967 172.354 67.3867C172.354 68.1159 172.262 68.8792 172.08 69.6768C172.217 69.6995 172.354 69.7109 172.49 69.7109C172.627 69.7109 172.775 69.7109 172.935 69.7109C173.709 69.7109 174.404 69.6198 175.02 69.4375C175.635 69.2552 176.193 68.9818 176.694 68.6172C177.196 68.2526 177.64 67.7855 178.027 67.2158C178.438 66.6462 178.825 65.9854 179.189 65.2334C179.258 65.0967 179.406 64.9714 179.634 64.8574C179.862 64.7207 180.09 64.6523 180.317 64.6523C180.614 64.6523 180.887 64.7777 181.138 65.0283C181.411 65.2562 181.548 65.5638 181.548 65.9512C181.548 66.1335 181.502 66.3385 181.411 66.5664C181.32 66.7715 181.229 66.9652 181.138 67.1475C180.75 67.8311 180.295 68.4919 179.771 69.1299C179.269 69.7451 178.665 70.292 177.959 70.7705C177.275 71.2262 176.501 71.5908 175.635 71.8643C174.769 72.1377 173.8 72.263 172.729 72.2402ZM166.885 63.627C166.885 64.0599 166.942 64.5156 167.056 64.9941C167.17 65.4727 167.34 65.9512 167.568 66.4297C167.819 66.8854 168.115 67.3298 168.457 67.7627C168.822 68.1729 169.243 68.526 169.722 68.8223C169.79 68.3438 169.824 67.8766 169.824 67.4209C169.824 66.8057 169.779 66.179 169.688 65.541C169.596 64.903 169.46 64.3219 169.277 63.7979C169.118 63.251 168.913 62.818 168.662 62.499C168.411 62.1572 168.115 61.9863 167.773 61.9863C167.637 61.9863 167.454 62.0889 167.227 62.2939C166.999 62.499 166.885 62.9434 166.885 63.627ZM198.569 66.5322C198.319 67.0563 198 67.6829 197.612 68.4121C197.248 69.1185 196.826 69.859 196.348 70.6338C195.869 71.4085 195.334 72.1833 194.741 72.958C194.149 73.71 193.499 74.3936 192.793 75.0088C192.109 75.6012 191.369 76.0798 190.571 76.4443C189.797 76.8317 188.965 77.0254 188.076 77.0254C186.709 77.0254 185.535 76.6038 184.556 75.7607C183.576 74.9176 182.744 73.8125 182.061 72.4453C181.377 71.0781 180.819 69.5286 180.386 67.7969C179.976 66.0423 179.657 64.265 179.429 62.4648C179.201 60.6419 179.041 58.876 178.95 57.167C178.882 55.458 178.848 53.9427 178.848 52.6211C178.848 50.707 178.905 48.7246 179.019 46.6738C179.155 44.623 179.36 42.6178 179.634 40.6582C179.907 38.6986 180.249 36.8415 180.659 35.0869C181.092 33.3324 181.593 31.7943 182.163 30.4727C182.756 29.151 183.428 28.1029 184.18 27.3281C184.932 26.5534 185.786 26.166 186.743 26.166C187.495 26.166 188.167 26.3483 188.76 26.7129C189.375 27.0547 189.888 27.6243 190.298 28.4219C190.708 29.2194 191.027 30.2562 191.255 31.5322C191.483 32.8083 191.597 34.3691 191.597 36.2148C191.597 38.4935 191.357 40.8519 190.879 43.29C190.4 45.7054 189.751 48.1436 188.931 50.6045C188.11 53.0654 187.142 55.5264 186.025 57.9873C184.909 60.4255 183.713 62.8066 182.437 65.1309C183.006 68.0247 183.77 70.3034 184.727 71.9668C185.684 73.6074 186.834 74.4277 188.179 74.4277C189.09 74.4277 189.967 74.0745 190.811 73.3682C191.654 72.639 192.428 71.7845 193.135 70.8047C193.841 69.8249 194.456 68.8337 194.98 67.8311C195.527 66.8057 195.949 65.9854 196.245 65.3701C196.359 65.1423 196.519 64.9714 196.724 64.8574C196.929 64.7207 197.157 64.6523 197.407 64.6523C197.795 64.6523 198.102 64.7891 198.33 65.0625C198.581 65.3359 198.706 65.6436 198.706 65.9854C198.706 66.1221 198.66 66.3044 198.569 66.5322ZM181.445 52.792C181.445 54.2503 181.479 55.6517 181.548 56.9961C181.616 58.3405 181.707 59.6279 181.821 60.8584C182.778 59.0127 183.69 57.0531 184.556 54.9795C185.422 52.8831 186.185 50.7754 186.846 48.6562C187.507 46.5143 188.031 44.3952 188.418 42.2988C188.828 40.1797 189.033 38.1631 189.033 36.249C189.033 33.5602 188.817 31.6348 188.384 30.4727C187.951 29.3105 187.37 28.7295 186.641 28.7295C186.162 28.7295 185.695 29.0599 185.239 29.7207C184.806 30.3815 184.396 31.2816 184.009 32.4209C183.621 33.5602 183.268 34.9046 182.949 36.4541C182.63 38.0036 182.357 39.667 182.129 41.4443C181.924 43.2217 181.753 45.0788 181.616 47.0156C181.502 48.9525 181.445 50.8779 181.445 52.792Z" fill="#FDD486"/>
</svg>
